<svg width="106" height="30" viewBox="0 0 106 30" fill="none" xmlns="http://www.w3.org/2000/svg">
<path d="M86.4862 7.22949C85.7242 7.22949 85.1064 7.84722 85.1064 8.60922C85.1064 9.37123 85.7242 9.98896 86.4862 9.98896C87.2482 9.98896 87.8659 9.37123 87.8659 8.60922C87.8659 7.84722 87.2482 7.22949 86.4862 7.22949Z" fill="white"/>
<path d="M85.3229 11.4769C85.2033 11.4769 85.1064 11.5738 85.1064 11.6933V22.3795C85.1064 22.499 85.2033 22.5959 85.3229 22.5959H87.6495C87.769 22.5959 87.8659 22.499 87.8659 22.3795V11.6933C87.8659 11.5738 87.769 11.4769 87.6495 11.4769H85.3229Z" fill="white"/>
<path fill-rule="evenodd" clip-rule="evenodd" d="M100.183 19.1745V19.1745C100.231 19.0366 100.129 18.8922 99.9828 18.8922H97.3904C97.3206 18.8922 97.2553 18.9265 97.2157 18.9839V18.9839C96.7189 19.7056 95.9342 20.1644 95.0577 20.1644C93.8444 20.1644 92.801 19.2807 92.4661 18.044H100.271C100.379 18.044 100.47 17.9625 100.482 17.855V17.855C100.506 17.6386 100.518 17.4187 100.518 17.1958C100.518 14.0439 98.083 11.4707 95.0577 11.4707C92.0325 11.4707 89.5977 14.0439 89.5977 17.1958C89.5977 20.3478 92.0325 22.9209 95.0577 22.9209C97.4157 22.9209 99.4167 21.3557 100.183 19.1745ZM95.0577 14.2272C96.0897 14.2272 96.9974 14.8652 97.4528 15.8176H92.6627C93.1181 14.8652 94.0257 14.2272 95.0577 14.2272Z" fill="white"/>
<path d="M37.2218 7.22949C37.1023 7.22949 37.0054 7.32639 37.0054 7.44592V20.3768C37.0054 20.377 37.0054 20.3773 37.0054 20.3775L37.0054 22.7041C37.0054 22.7639 37.0296 22.818 37.0688 22.8572C37.1079 22.8963 37.162 22.9206 37.2218 22.9206H47.7186C47.8381 22.9206 47.935 22.8237 47.935 22.7041V20.3775C47.935 20.258 47.8381 20.1611 47.7186 20.1611L39.7648 20.1611V7.44592C39.7648 7.32639 39.6679 7.22949 39.5484 7.22949H37.2218Z" fill="white"/>
<path d="M60.8061 23.7499H63.3988C63.4685 23.7499 63.5338 23.7842 63.5734 23.8416C64.0703 24.5629 64.8549 25.0214 65.7314 25.0214C66.9448 25.0214 68.323 24.032 68.323 22.8796L68.3738 21.9733L71.1048 22.0275V22.6903C71.1048 25.6797 68.4801 27.7763 65.7314 27.7763C63.3734 27.7763 61.3723 26.212 60.6062 24.032C60.5578 23.8942 60.66 23.7499 60.8061 23.7499Z" fill="white"/>
<path fill-rule="evenodd" clip-rule="evenodd" d="M60.1631 17.1984C60.1631 14.0383 62.5492 11.4766 65.4926 11.4766C66.5369 11.4766 67.511 11.799 68.3333 12.3562V12.0176C68.3333 11.8981 68.4302 11.8012 68.5497 11.8012L70.8763 11.8012C70.9958 11.8012 71.0927 11.8981 71.0927 12.0176L71.0927 22.0274L68.3526 22.0274C67.5263 22.5927 66.5451 22.9202 65.4926 22.9202C62.5492 22.9202 60.1631 20.3585 60.1631 17.1984ZM68.3333 17.1958V17.201C68.332 18.8359 67.1212 20.1608 65.6279 20.1608C64.1338 20.1608 62.9225 18.8345 62.9226 17.1984C62.9226 15.5623 64.1338 14.236 65.6279 14.236C67.1212 14.236 68.332 15.5609 68.3333 17.1958Z" fill="white"/>
<path d="M73.0615 23.7499H75.6541C75.7239 23.7499 75.7892 23.7842 75.8287 23.8416C76.3256 24.5629 77.1103 25.0214 77.9868 25.0214C79.2001 25.0214 80.5784 24.032 80.5784 22.8796L80.6292 21.9733L83.3602 22.0275V22.6903C83.3602 25.6797 80.7355 27.7763 77.9868 27.7763C75.6288 27.7763 73.6277 26.212 72.8616 24.032C72.8131 23.8942 72.9154 23.7499 73.0615 23.7499Z" fill="white"/>
<path fill-rule="evenodd" clip-rule="evenodd" d="M72.4185 17.1984C72.4185 14.0383 74.8046 11.4766 77.748 11.4766C78.7922 11.4766 79.7663 11.799 80.5886 12.3562V12.0176C80.5886 11.8981 80.6855 11.8012 80.8051 11.8012L83.1317 11.8012C83.2512 11.8012 83.3481 11.8981 83.3481 12.0176L83.3481 22.0274L80.608 22.0274C79.7816 22.5927 78.8004 22.9202 77.748 22.9202C74.8046 22.9202 72.4185 20.3585 72.4185 17.1984ZM80.5886 17.1955V17.2013C80.5872 18.836 79.3765 20.1608 77.8833 20.1608C76.3892 20.1608 75.1779 18.8345 75.1779 17.1984C75.1779 15.5623 76.3892 14.236 77.8833 14.236C79.3765 14.236 80.5872 15.5608 80.5886 17.1955Z" fill="white"/>
<path fill-rule="evenodd" clip-rule="evenodd" d="M53.6162 11.4766C50.5981 11.4766 48.1514 14.0383 48.1514 17.1984C48.1514 20.3585 50.5981 22.9202 53.6162 22.9202C56.6343 22.9202 59.081 20.3585 59.081 17.1984C59.081 14.0383 56.6343 11.4766 53.6162 11.4766ZM53.6016 14.236C52.0696 14.236 50.8276 15.5623 50.8276 17.1984C50.8276 18.8345 52.0696 20.1608 53.6016 20.1608C55.1337 20.1608 56.3756 18.8345 56.3756 17.1984C56.3756 15.5623 55.1337 14.236 53.6016 14.236Z" fill="white"/>
<path d="M13.8238 2.90343C15.2837 1.45797 17.6507 1.45797 19.1106 2.90342C20.5705 4.34888 20.5705 6.69242 19.1106 8.13787L12.4994 14.6836C12.4289 14.7535 12.3562 14.8199 12.2817 14.883C11.328 15.8293 11.3287 17.3618 12.2836 18.3073L12.8568 18.8748C12.3643 19.0109 11.8451 19.0837 11.3086 19.0837C8.14105 19.0837 5.57324 16.5462 5.57324 13.416C5.57324 11.9271 6.15424 10.5722 7.10442 9.5608C7.12896 9.53441 7.15397 9.50829 7.17943 9.48244C7.2212 9.43964 7.26365 9.39747 7.30675 9.35598L13.8238 2.90343Z" fill="white"/>
<path d="M16.8139 27.2562C15.3539 28.7016 12.987 28.7016 11.5271 27.2562C10.0672 25.8107 10.0672 23.4672 11.5271 22.0217L18.1383 15.476C18.2088 15.4061 18.2815 15.3396 18.3562 15.2765C19.3097 14.3302 19.309 12.7978 18.3541 11.8524L17.7713 11.2753C18.2663 11.1374 18.7884 11.0637 19.328 11.0637C22.4961 11.0637 25.0644 13.6066 25.0644 16.7433C25.0644 18.4069 24.3421 19.9034 23.191 20.9422L16.8139 27.2562Z" fill="white"/>
</svg>
